<?xml version="1.0" standalone="no"?>
<!DOCTYPE svg PUBLIC "-//W3C//DTD SVG 20010904//EN"
 "http://www.w3.org/TR/2001/REC-SVG-20010904/DTD/svg10.dtd">
<svg version="1.0" xmlns="http://www.w3.org/2000/svg"
 width="1024.000000pt" height="1024.000000pt" viewBox="0 0 1024.000000 1024.000000"
 preserveAspectRatio="xMidYMid meet">
<metadata>
Created by potrace 1.14, written by Peter Selinger 2001-2017
</metadata>
<g transform="translate(0.000000,1024.000000) scale(0.100000,-0.100000)"
fill="#000000" stroke="none">
<path d="M6196 9293 c-3 -3 -22 -6 -41 -5 -26 1 -34 -2 -28 -11 5 -9 3 -9 -8
-1 -11 9 -104 12 -104 4 0 -1 -10 -3 -22 -4 -13 -2 -23 2 -23 8 0 7 -3 7 -8 1
-10 -13 -14 -14 -147 -19 -64 -2 -119 -7 -122 -10 -4 -3 -13 0 -21 7 -13 9
-14 9 -8 0 5 -10 -9 -12 -59 -10 -37 2 -69 -1 -72 -6 -3 -5 -11 -6 -19 -3 -7
3 -16 1 -19 -4 -4 -6 -14 -7 -23 -2 -19 9 -32 9 -47 1 -5 -3 -17 -5 -25 -4 -8
1 -25 -2 -38 -7 -15 -5 -21 -4 -17 2 3 6 1 10 -4 10 -6 0 -11 -4 -11 -9 0 -5
-23 -7 -51 -4 -31 2 -56 -1 -65 -8 -11 -9 -14 -9 -14 1 0 10 -3 10 -15 0 -8
-7 -15 -9 -15 -5 0 4 -8 1 -17 -6 -14 -12 -15 -12 -9 0 7 11 -1 12 -40 7 -27
-3 -66 -7 -86 -8 -21 -1 -38 -7 -38 -13 0 -6 -3 -7 -8 0 -9 12 -32 18 -32 7 0
-4 -19 -7 -43 -8 -23 0 -82 -4 -132 -7 -49 -4 -115 -10 -145 -12 -149 -11
-199 -15 -250 -20 -30 -2 -90 -7 -133 -10 -43 -2 -83 -7 -88 -11 -5 -3 -16 0
-24 6 -12 10 -15 10 -15 0 0 -8 -15 -11 -50 -8 -28 1 -50 0 -50 -3 0 -3 -17
-5 -37 -4 -21 0 -46 -3 -55 -7 -12 -6 -18 -5 -18 4 0 9 -3 10 -8 2 -4 -7 -35
-11 -74 -10 -36 0 -61 -2 -55 -6 6 -4 -15 -6 -46 -5 -32 2 -61 -1 -64 -6 -2
-4 -12 -2 -21 5 -12 10 -14 10 -8 0 6 -9 -7 -11 -53 -9 -34 2 -61 0 -61 -3 0
-4 -15 -6 -32 -5 -18 1 -41 -3 -52 -8 -14 -7 -16 -6 -11 4 6 8 4 10 -5 4 -11
-7 -114 -17 -165 -16 -10 0 -26 -5 -34 -12 -12 -9 -13 -9 -7 1 4 6 3 12 -3 12
-5 0 -12 -6 -14 -12 -4 -10 -6 -10 -6 -1 -1 9 -8 10 -23 4 -13 -4 -42 -7 -65
-6 -24 2 -43 0 -43 -4 0 -3 -26 -5 -57 -3 -32 1 -65 -1 -73 -4 -8 -4 -36 -6
-62 -6 -27 0 -48 -3 -48 -6 0 -4 -26 -7 -57 -8 -90 -1 -182 -8 -178 -14 2 -3
-16 -3 -40 -2 -24 2 -53 -2 -65 -8 -15 -8 -20 -8 -16 -1 5 8 0 8 -16 2 -13 -4
-29 -6 -37 -3 -10 3 -11 0 -5 -9 6 -11 5 -12 -7 -2 -12 10 -18 10 -29 0 -10
-9 -11 -9 -6 1 8 13 -10 17 -18 3 -3 -4 -22 -7 -42 -4 -23 2 -33 0 -29 -7 3
-5 1 -10 -4 -10 -6 0 -11 5 -11 11 0 7 -7 8 -17 4 -10 -4 -28 -7 -41 -6 -15 0
-21 -3 -16 -11 5 -7 3 -8 -7 -2 -21 13 -38 14 -45 2 -4 -6 -10 -5 -15 3 -7 11
-9 11 -9 1 0 -7 -5 -10 -11 -6 -6 3 -15 0 -20 -7 -5 -8 -9 -9 -9 -3 0 6 -11
12 -25 12 -13 0 -23 -4 -20 -8 5 -8 -32 -6 -41 3 -4 3 -15 2 -25 -4 -11 -5
-19 -7 -19 -3 0 3 -8 0 -17 -7 -12 -10 -15 -11 -9 -1 6 10 1 11 -21 6 -15 -4
-36 -7 -45 -6 -10 0 -18 -5 -18 -11 0 -8 -3 -8 -8 -2 -11 15 -32 17 -32 2 0
-8 -4 -7 -10 3 -8 11 -12 12 -18 3 -4 -7 -19 -11 -32 -8 -13 2 -30 -1 -39 -8
-12 -10 -13 -9 -7 1 6 10 1 11 -20 6 -16 -4 -35 -7 -44 -7 -8 0 -21 -5 -29
-11 -11 -8 -13 -8 -7 2 8 13 -15 17 -27 5 -4 -4 -33 -8 -65 -10 -58 -3 -137
-10 -137 -13 0 -1 -8 -3 -18 -5 -10 -2 -14 1 -11 7 4 7 2 8 -4 4 -7 -4 -38 -9
-69 -12 -32 -3 -73 -7 -91 -8 -18 -2 -35 -6 -39 -9 -3 -4 -12 -2 -20 4 -10 9
-13 8 -13 -1 0 -10 -3 -10 -15 0 -9 8 -15 9 -15 2 0 -6 -9 -9 -20 -7 -11 2
-22 0 -25 -6 -4 -5 -14 -5 -26 1 -14 8 -19 7 -19 -1 0 -9 -3 -9 -14 0 -9 8
-16 8 -20 2 -4 -5 -22 -8 -41 -6 -24 2 -33 0 -28 -8 4 -8 1 -8 -9 0 -8 7 -18
10 -22 6 -4 -4 -30 -8 -59 -10 -59 -2 -77 -6 -94 -16 -6 -4 -14 -3 -18 3 -3 5
-12 10 -18 10 -7 0 -6 -4 3 -10 10 -6 11 -10 3 -10 -7 0 -13 -7 -13 -16 0 -9
5 -12 13 -8 9 6 9 5 0 -8 -7 -8 -10 -18 -6 -21 6 -6 8 -30 14 -162 1 -22 7
-43 13 -47 7 -5 7 -8 -2 -8 -8 0 -10 -5 -6 -12 8 -12 10 -46 14 -166 1 -37 5
-50 13 -45 8 5 8 2 0 -9 -7 -8 -10 -18 -6 -21 3 -4 8 -44 9 -89 2 -46 6 -94
10 -108 3 -14 6 -50 6 -80 0 -30 2 -59 5 -63 3 -5 7 -38 9 -75 2 -37 6 -89 9
-117 2 -27 5 -72 5 -100 1 -27 5 -44 9 -37 4 7 5 -15 3 -48 -2 -33 -1 -67 3
-77 4 -10 7 -37 7 -60 -1 -25 4 -43 10 -43 7 0 7 -4 -1 -13 -6 -8 -9 -16 -6
-19 6 -6 18 -130 30 -325 6 -91 11 -138 15 -138 3 0 10 -123 10 -168 0 -33 3
-46 11 -42 8 6 8 2 0 -13 -6 -12 -8 -23 -4 -25 5 -3 8 -26 7 -51 0 -25 2 -46
5 -46 3 0 6 -27 5 -60 0 -33 2 -60 6 -60 4 0 5 -21 3 -46 -3 -25 -1 -44 4 -41
7 5 9 -23 13 -191 0 -29 4 -51 8 -48 4 2 6 -26 5 -62 0 -37 2 -71 5 -76 3 -5
7 -35 8 -65 3 -62 10 -142 20 -241 3 -36 6 -82 5 -103 0 -21 3 -36 7 -33 4 2
7 -27 6 -65 0 -38 2 -69 5 -69 3 0 5 -25 4 -56 -2 -30 1 -53 5 -50 4 2 6 -24
4 -60 -2 -35 0 -64 5 -64 5 0 7 -18 5 -40 -3 -24 1 -47 9 -57 12 -14 12 -16 0
-8 -11 6 -13 4 -7 -11 8 -19 14 -88 17 -182 1 -29 5 -54 8 -57 4 -2 6 -25 4
-50 -3 -36 -1 -45 9 -39 10 6 11 5 1 -8 -7 -8 -10 -18 -6 -21 3 -4 7 -33 9
-65 5 -134 7 -152 13 -152 3 0 4 -25 3 -56 -3 -45 -1 -55 10 -48 10 6 11 5 1
-8 -7 -8 -11 -17 -9 -19 6 -7 18 -131 17 -172 -2 -29 1 -37 11 -31 10 6 11 5
1 -8 -7 -8 -10 -17 -7 -21 3 -3 7 -34 9 -69 2 -34 7 -94 10 -133 4 -38 8 -86
10 -105 1 -19 3 -37 5 -40 1 -3 2 -27 2 -55 0 -27 2 -54 6 -59 3 -6 6 -30 7
-55 6 -141 8 -160 19 -154 6 4 5 0 -1 -9 -7 -8 -10 -18 -7 -21 6 -5 16 -124
15 -172 0 -11 5 -23 12 -27 9 -6 9 -8 0 -8 -7 0 -10 -6 -7 -13 6 -16 12 -86
13 -160 1 -44 4 -56 14 -51 9 6 9 5 0 -8 -7 -8 -10 -17 -7 -20 5 -6 16 -144
15 -187 -1 -13 4 -30 10 -37 9 -11 8 -14 0 -14 -8 0 -9 -6 -3 -17 5 -10 7 -24
5 -31 -3 -7 -2 -20 2 -30 4 -9 7 -46 6 -82 -1 -36 2 -60 6 -54 4 7 9 -38 11
-99 1 -69 7 -116 15 -125 10 -13 9 -14 -2 -7 -11 6 -13 4 -7 -11 8 -20 17
-110 17 -182 0 -23 4 -42 7 -42 4 0 6 -27 5 -60 0 -33 2 -60 5 -60 4 0 6 -27
5 -60 -1 -33 2 -60 5 -60 4 0 7 -27 6 -60 0 -33 2 -60 5 -60 6 0 9 -51 11
-177 0 -29 4 -53 8 -53 4 0 6 -29 6 -65 -1 -36 2 -65 5 -65 4 0 6 -20 5 -45
-1 -25 1 -43 4 -41 4 2 6 -27 4 -65 -1 -38 1 -69 5 -69 5 0 8 -22 9 -50 3
-165 4 -171 17 -164 8 5 8 2 -2 -9 -7 -9 -9 -17 -4 -17 4 0 7 -18 5 -40 -3
-24 1 -47 9 -57 12 -14 12 -16 -1 -8 -13 8 -13 7 -1 -9 8 -9 17 -13 20 -8 3 5
23 8 43 7 21 -1 36 1 33 5 -2 4 2 7 10 7 8 0 15 -5 15 -10 0 -6 5 -6 13 0 6 5
23 9 37 8 14 0 28 4 32 10 5 6 8 6 8 -2 0 -7 5 -13 11 -13 5 0 8 3 6 8 -3 4
18 7 46 8 29 1 61 4 72 8 17 7 18 6 5 -4 -13 -10 -12 -11 5 -5 11 4 32 8 47 9
15 1 31 5 34 9 4 4 13 2 21 -4 9 -9 13 -8 13 0 0 6 5 11 11 11 5 0 7 -5 3 -12
-5 -7 -3 -8 7 -2 8 5 21 9 29 9 8 0 20 4 27 8 6 4 15 3 18 -3 5 -8 11 -8 20 0
10 8 15 8 20 0 5 -8 11 -8 19 -1 7 6 22 9 34 6 12 -2 22 0 22 6 0 5 5 9 11 9
5 0 7 -4 4 -10 -3 -5 -2 -10 4 -10 5 0 12 4 15 9 3 4 26 7 51 6 25 -1 48 1 50
5 2 3 31 5 64 5 34 -1 61 1 61 5 0 4 11 5 25 2 14 -2 33 2 42 9 10 8 14 9 10
2 -5 -8 0 -11 13 -10 11 1 20 6 20 12 0 5 5 3 10 -5 5 -8 10 -10 10 -5 0 6 21
11 48 12 121 3 158 7 164 17 5 7 8 7 8 -2 0 -7 5 -10 11 -6 11 7 102 15 181
16 21 0 36 3 34 7 -3 4 18 6 45 5 35 -2 47 1 42 9 -5 9 -3 9 8 0 8 -6 20 -8
27 -4 7 4 33 6 58 4 35 -3 44 -1 38 9 -6 10 -5 10 8 0 10 -8 19 -9 22 -3 3 5
18 7 34 5 15 -2 68 0 117 6 80 8 252 22 313 24 12 1 22 4 22 7 0 3 20 4 45 3
25 -2 45 0 45 4 0 4 26 8 58 8 31 1 86 4 122 8 36 3 85 7 110 9 25 1 51 6 58
10 7 5 12 3 12 -5 0 -8 3 -9 8 -3 4 6 18 10 32 10 14 -1 31 4 39 9 11 8 13 8
7 -1 -4 -7 -2 -13 3 -13 6 0 11 4 11 9 0 5 18 8 40 6 26 -2 40 1 40 8 0 8 3 8
8 2 9 -13 32 -17 32 -6 0 5 8 8 18 6 9 -1 25 2 36 7 13 7 16 7 12 -1 -4 -6 -2
-11 3 -11 6 0 11 3 11 8 0 4 11 8 25 8 16 1 22 -2 18 -10 -4 -6 1 -5 10 3 9 7
23 11 30 8 8 -3 20 -1 28 3 8 5 19 4 28 -3 12 -9 13 -9 7 1 -4 6 -2 12 3 12 6
0 11 -6 11 -12 0 -10 2 -10 8 -1 4 7 16 12 27 11 11 -1 31 2 44 6 18 6 22 5
15 -5 -6 -11 -5 -11 9 0 10 8 20 11 24 8 3 -4 15 -2 26 4 15 8 18 8 12 -1 -6
-9 -2 -9 14 -1 16 9 21 9 21 -1 0 -8 3 -9 8 -3 9 13 13 14 124 20 51 2 93 5
93 6 0 2 45 8 108 13 86 7 177 15 232 22 22 2 74 6 115 9 90 6 101 8 118 18 7
5 12 3 12 -3 0 -6 5 -8 10 -5 6 4 45 9 88 12 96 6 95 6 104 18 5 6 8 5 8 -3 0
-7 4 -11 9 -8 5 3 31 8 59 10 28 2 56 7 61 11 6 3 11 0 11 -7 0 -8 3 -9 8 -3
4 6 14 10 22 10 8 -1 21 4 29 9 8 6 17 9 20 8 31 -18 41 -22 41 -13 0 5 8 8
18 6 9 -1 23 3 31 9 11 8 13 8 7 -1 -4 -7 -2 -13 3 -13 6 0 11 4 11 8 0 4 16
6 36 4 26 -3 35 -1 30 7 -9 14 16 10 27 -4 4 -6 11 -4 17 5 9 13 10 13 10 0 0
-10 3 -11 8 -4 4 6 22 10 40 9 18 -1 35 2 38 6 3 5 16 4 30 -1 16 -7 23 -7 19
0 -4 6 6 8 25 6 17 -2 33 1 36 6 4 6 10 5 15 -3 6 -10 9 -10 9 -2 0 9 15 12
45 10 25 -1 45 0 45 3 0 4 27 6 61 6 33 -1 63 2 65 6 3 5 14 8 25 8 14 0 18
-4 13 -12 -6 -10 -5 -10 7 -2 14 12 48 18 162 30 34 4 65 12 70 18 5 8 10 7
17 -4 7 -10 12 -12 18 -4 4 6 17 10 30 9 12 -1 22 2 22 7 0 4 5 8 11 8 5 0 7
-5 3 -12 -5 -7 -3 -8 7 -2 16 10 44 16 77 17 12 1 22 4 22 8 0 3 12 5 27 3 15
-1 32 1 38 5 5 4 21 8 35 9 44 4 60 8 72 20 7 7 17 8 30 1 12 -7 18 -6 18 1 0
6 4 9 9 5 5 -3 13 -1 16 5 5 8 12 7 23 -2 13 -11 15 -11 10 2 -5 13 1 15 30
12 23 -3 33 -1 28 6 -4 7 1 9 14 7 11 -2 20 0 20 4 0 5 12 6 26 3 16 -3 24 -1
21 4 -3 6 9 11 26 12 17 2 35 8 39 15 6 9 8 8 8 -3 0 -9 3 -11 8 -5 8 11 28
18 52 18 8 0 23 6 32 15 15 12 20 13 33 2 9 -8 15 -9 13 -4 -2 5 0 9 3 9 3 0
14 7 24 15 11 9 16 10 11 3 -4 -7 -2 -13 3 -13 6 0 11 5 11 11 0 6 7 8 15 5 9
-3 18 1 21 9 4 8 10 15 16 15 5 0 6 -6 2 -12 -6 -9 -3 -9 9 0 9 8 22 10 28 6
8 -4 9 -3 5 4 -5 8 0 12 13 12 12 0 21 5 21 11 0 6 7 9 15 5 8 -3 21 2 30 10
11 12 15 12 15 2 0 -8 3 -9 8 -3 4 6 21 16 37 24 17 7 38 18 49 23 14 7 16 6
10 -4 -4 -7 2 -5 13 5 11 9 23 14 26 10 4 -3 7 -1 7 6 0 7 4 10 8 7 5 -3 23 4
40 15 37 22 46 24 36 7 -4 -7 -3 -8 5 -4 6 4 9 11 6 16 -4 7 21 19 48 24 4 0
12 8 17 16 9 13 10 13 10 0 1 -13 2 -13 13 1 13 17 17 19 43 19 8 0 12 5 9 10
-4 6 5 10 20 10 15 0 24 4 20 10 -3 6 0 10 8 10 8 0 20 7 27 15 7 9 15 13 18
11 8 -9 43 14 37 24 -3 5 4 7 15 5 12 -2 20 1 20 10 0 9 6 12 15 9 9 -4 15 0
15 10 0 9 3 15 8 15 21 -4 32 3 33 19 0 12 2 13 6 3 4 -11 10 -8 25 10 11 13
17 17 13 9 -4 -8 3 -4 14 10 14 18 21 21 21 10 1 -9 5 -7 12 8 6 12 18 22 26
22 8 0 28 14 44 30 15 17 35 30 43 30 9 0 12 6 8 17 -4 10 -2 14 5 9 6 -3 15
2 21 11 6 10 11 15 11 11 0 -4 10 3 23 15 48 46 87 77 98 77 5 0 7 5 4 10 -3
6 2 10 12 10 15 0 16 2 3 10 -11 7 -11 10 -2 10 15 0 60 40 46 41 -5 0 5 7 21
14 17 8 25 14 18 15 -7 0 -1 11 13 25 14 14 29 23 35 20 5 -3 6 1 3 9 -4 9 1
18 10 22 9 3 13 10 10 15 -3 5 0 9 6 9 6 0 8 5 5 10 -4 6 -1 9 6 8 7 -2 15 7
18 20 3 13 11 23 16 23 6 -1 10 3 10 8 0 5 10 18 22 29 13 10 20 22 16 25 -3
4 2 9 11 13 9 3 13 10 10 15 -3 5 2 12 11 15 13 6 14 8 3 15 -10 7 -9 9 5 9
15 0 22 11 18 33 -1 5 3 6 8 3 10 -7 24 22 16 34 -3 5 3 11 14 15 13 4 18 13
16 25 -2 11 4 24 13 30 9 5 13 10 9 10 -5 0 -1 7 7 16 9 8 16 24 16 35 0 14 4
18 13 13 7 -5 6 0 -3 11 -8 10 -10 16 -3 12 8 -5 15 1 19 18 4 15 11 22 18 18
6 -4 6 -1 -2 9 -10 13 -10 17 4 22 9 4 14 13 10 21 -3 8 -2 15 2 15 4 0 12 11
19 25 6 15 7 22 1 19 -6 -4 -5 3 1 15 7 11 16 21 20 21 5 0 7 10 3 22 -4 16
-2 19 9 13 12 -8 12 -6 0 8 -10 12 -10 17 -1 17 6 0 10 6 7 13 -2 6 3 18 12
25 12 10 13 12 1 6 -13 -7 -13 -6 -1 9 8 10 11 20 7 24 -3 3 1 17 10 31 11 17
12 22 3 16 -10 -6 -10 -3 1 11 8 10 13 27 12 38 -2 11 2 24 10 28 11 7 11 9
-1 9 -11 0 -11 3 -1 15 7 8 10 22 6 30 -3 9 -2 13 4 10 6 -4 8 6 6 24 -2 17 2
32 8 34 7 3 6 10 -4 22 -9 11 -10 16 -2 11 12 -7 14 1 17 69 0 17 4 36 8 43 5
7 3 12 -4 12 -8 0 -8 4 -2 13 5 6 9 33 8 59 -1 31 2 45 9 41 6 -4 5 1 -3 10
-7 9 -10 17 -5 17 10 0 10 113 0 128 -4 6 -2 13 4 17 5 3 10 11 10 16 0 6 -4
8 -8 5 -4 -2 -8 4 -8 15 0 10 4 19 9 19 4 0 6 4 3 9 -3 4 -8 51 -12 102 -3 52
-7 108 -9 124 -2 17 -4 43 -4 58 -1 16 -5 26 -9 23 -5 -3 -9 1 -9 9 0 8 5 12
10 8 5 -3 5 2 0 13 -5 11 -9 30 -9 44 1 14 -3 28 -8 32 -5 3 -9 23 -8 43 1 26
-2 34 -11 28 -8 -4 -7 -1 2 10 11 13 11 17 1 17 -8 0 -10 3 -7 7 4 3 1 13 -6
21 -10 13 -9 14 3 7 12 -6 13 -5 3 6 -7 7 -13 26 -13 42 0 15 -4 26 -8 23 -4
-2 -9 6 -10 19 -3 36 -6 49 -14 55 -6 5 -15 46 -17 78 -1 7 -5 11 -10 7 -6 -3
-8 4 -6 15 2 11 0 20 -5 20 -5 0 -7 9 -5 20 2 11 -1 19 -8 17 -7 -1 -11 7 -9
22 2 13 0 21 -5 18 -5 -3 -15 14 -22 39 -7 24 -17 42 -22 39 -4 -3 -6 3 -4 14
2 11 -3 22 -12 25 -9 4 -13 14 -10 25 2 10 0 25 -5 32 -8 11 -8 10 -4 -4 3
-11 2 -16 -4 -12 -6 3 -10 15 -10 26 0 12 -4 17 -11 14 -6 -4 -9 0 -7 11 2 12
-2 18 -10 16 -8 -1 -11 2 -8 7 4 5 2 12 -4 16 -6 4 -8 11 -5 16 4 5 1 9 -4 9
-6 0 -11 6 -11 14 0 8 -5 18 -12 22 -7 5 -8 3 -3 -6 5 -8 4 -11 -3 -6 -6 4 -9
12 -6 19 2 7 -4 22 -15 34 -11 11 -17 24 -14 27 4 3 -1 6 -10 6 -8 0 -19 9
-22 20 -4 11 -11 18 -16 14 -5 -3 -9 -2 -8 3 4 24 -3 43 -15 43 -7 0 -21 12
-31 26 -28 44 -49 64 -65 64 -13 0 -13 1 0 10 8 5 10 10 4 10 -16 0 -64 44
-64 58 0 7 -4 10 -10 7 -5 -3 -10 -1 -10 5 0 6 -4 9 -8 6 -4 -2 -17 9 -27 25
-11 16 -32 34 -47 40 -16 6 -28 15 -28 20 0 5 -4 9 -10 9 -5 0 -19 8 -30 18
-50 44 -67 57 -79 60 -7 1 -22 11 -33 22 -12 11 -25 17 -30 14 -4 -3 -8 0 -8
5 0 6 -7 11 -16 11 -8 0 -12 4 -9 10 3 6 -1 7 -9 4 -9 -3 -16 -1 -16 6 0 6 -4
8 -10 5 -5 -3 -10 2 -10 12 0 15 -2 16 -10 3 -8 -12 -10 -12 -11 5 0 12 -3 15
-6 7 -4 -10 -8 -9 -19 5 -9 12 -13 14 -14 4 0 -8 -6 -5 -17 8 -10 12 -28 23
-40 24 -13 1 -23 5 -23 10 0 4 -4 5 -10 2 -5 -3 -10 2 -10 12 0 15 -2 16 -10
3 -8 -13 -10 -12 -10 3 0 10 -4 16 -9 13 -5 -3 -21 0 -36 8 -15 8 -34 12 -43
9 -10 -4 -13 -2 -8 5 5 8 -2 12 -19 12 -14 0 -24 4 -21 8 2 4 -5 9 -17 9 -12
1 -23 7 -25 12 -2 7 -11 7 -25 -1 -19 -10 -20 -9 -10 3 10 12 6 15 -22 14 -19
-1 -32 2 -29 6 2 4 0 10 -6 14 -5 3 -10 1 -10 -6 0 -8 -7 -6 -19 5 -10 9 -22
16 -27 15 -5 -1 -16 -1 -24 0 -13 1 -13 2 0 11 12 8 10 10 -10 10 l-25 1 23
12 c12 7 20 16 16 20 -4 3 3 5 14 2 16 -3 19 0 15 12 -5 12 -2 15 9 10 10 -3
27 5 45 23 22 23 31 26 42 17 8 -7 12 -7 9 -2 -6 9 13 33 29 38 5 1 7 6 5 10
-1 5 2 6 7 3 5 -4 12 -2 16 4 4 6 10 8 14 6 4 -3 15 6 25 20 11 13 25 24 33
24 8 0 11 5 7 12 -4 7 -3 8 5 4 15 -10 43 13 34 27 -3 6 -1 7 6 3 12 -8 44 18
34 28 -4 3 4 6 16 6 12 0 19 4 16 10 -3 6 -1 10 6 10 6 0 26 16 45 35 18 19
37 35 43 35 6 0 11 4 11 10 0 5 14 23 30 40 17 17 28 35 25 40 -3 5 0 12 6 16
7 4 9 3 6 -3 -4 -6 0 -13 8 -16 10 -4 12 -1 8 10 -4 11 -2 14 5 9 8 -5 10 -1
5 10 -4 12 -3 15 5 10 7 -4 12 -1 12 8 0 9 8 16 18 17 11 0 12 2 4 6 -9 3 -5
12 13 29 14 13 31 38 36 54 6 16 15 27 20 24 5 -3 9 2 9 10 0 9 4 16 9 16 5 0
12 12 16 27 3 15 10 30 14 33 15 11 43 62 30 55 -8 -3 -5 1 5 9 15 12 16 16 5
16 -8 1 -3 7 11 15 14 8 19 14 12 15 -7 0 -10 5 -7 10 4 6 10 8 14 5 5 -2 7 7
5 20 -1 18 3 25 14 26 10 0 12 3 5 5 -7 3 -9 12 -6 20 3 7 9 12 13 9 4 -3 8 1
7 8 -1 36 4 57 13 52 6 -3 10 -2 10 4 0 5 -6 12 -12 14 -10 4 -10 6 0 6 6 1
12 13 12 27 0 14 4 23 9 20 4 -3 7 10 5 30 -2 24 2 37 12 41 11 4 12 9 3 19
-9 11 -8 14 2 14 11 0 11 2 -1 10 -8 5 -10 10 -4 10 7 0 14 9 17 20 3 11 2 18
-2 15 -4 -2 -8 2 -8 10 0 8 4 12 9 9 4 -3 8 2 8 11 0 10 -5 13 -12 9 -9 -5 -9
-2 1 9 7 9 10 17 6 17 -4 0 -3 6 4 13 8 10 7 17 -2 27 -9 10 -9 11 1 6 6 -4
12 -2 12 3 0 6 -6 11 -12 11 -9 0 -10 3 -2 8 6 4 10 22 8 40 -2 22 1 30 9 26
7 -3 4 1 -6 9 -17 14 -17 15 0 21 10 4 13 10 8 14 -14 10 -17 124 -3 116 6 -4
6 1 -1 13 -6 11 -7 23 -4 27 3 3 1 6 -5 6 -8 0 -9 7 -2 25 6 16 6 26 -1 31 -7
4 -7 10 0 18 7 8 7 16 1 22 -5 5 -12 36 -16 69 -7 66 -11 97 -14 105 -1 3 -2
8 -1 13 0 4 -2 7 -7 7 -4 0 -8 12 -9 28 -3 51 -7 72 -15 72 -4 0 -8 10 -8 23
0 13 -6 29 -12 36 -7 8 -8 11 -2 8 6 -3 11 0 11 8 0 8 -4 12 -9 9 -4 -3 -8 2
-8 10 0 9 -6 16 -12 16 -10 0 -9 3 1 9 8 6 9 10 2 12 -6 2 -12 19 -14 37 -2
17 -7 35 -12 40 -5 4 -5 1 0 -7 5 -9 4 -12 -3 -7 -6 3 -9 15 -7 25 2 11 -3 22
-11 25 -9 3 -14 14 -12 23 2 10 -3 24 -12 31 -8 8 -10 11 -3 8 8 -5 8 0 0 19
-7 14 -16 25 -20 25 -5 0 -5 5 -2 10 3 6 -1 10 -9 10 -9 0 -16 5 -16 11 0 5 5
7 12 3 6 -4 3 4 -8 18 -10 14 -22 24 -26 21 -4 -2 -5 2 -2 10 3 8 -2 22 -11
31 -9 9 -14 16 -10 16 4 0 -1 7 -9 16 -9 8 -14 20 -10 25 3 5 0 8 -7 7 -7 -2
-13 4 -14 12 -1 8 -6 14 -12 13 -7 -2 -10 6 -8 17 2 12 0 18 -5 15 -8 -5 -34
30 -35 47 0 3 -10 15 -22 26 -13 11 -23 25 -23 31 0 7 -4 9 -10 6 -5 -3 -10 2
-10 11 0 10 -3 14 -7 11 -3 -4 -11 3 -18 16 -6 12 -17 21 -23 19 -7 -1 -12 2
-12 8 0 5 -9 18 -21 29 -12 11 -18 24 -15 30 4 6 1 9 -7 5 -8 -3 -21 6 -31 20
-9 15 -23 26 -31 26 -8 0 -15 5 -15 11 0 5 -5 7 -12 3 -6 -4 -8 -3 -5 3 6 10
-26 43 -42 43 -5 0 -11 7 -15 15 -3 8 -10 15 -16 15 -6 0 -22 12 -35 26 -14
15 -25 22 -25 16 0 -7 -8 -5 -19 5 -11 9 -17 21 -14 26 3 6 1 7 -5 3 -6 -3
-14 -1 -17 5 -4 5 -13 8 -21 5 -8 -3 -14 1 -14 8 0 8 -7 17 -16 20 -10 4 -13
2 -8 -6 4 -7 3 -8 -4 -4 -7 4 -12 14 -12 21 0 9 -6 12 -15 9 -8 -4 -15 -1 -15
5 0 6 -9 11 -19 11 -11 0 -23 5 -27 12 -5 7 -3 8 6 3 8 -5 11 -4 6 3 -3 6 -15
9 -26 7 -11 -2 -20 0 -20 6 0 5 -7 9 -15 9 -8 0 -15 5 -15 11 0 5 -4 7 -10 4
-5 -3 -10 -2 -10 4 0 5 -9 8 -21 6 -16 -3 -18 -1 -10 9 8 10 6 12 -12 11 -12
-1 -25 2 -28 7 -3 5 -16 10 -27 11 -12 1 -22 5 -22 10 0 4 -4 5 -10 2 -5 -3
-10 -2 -10 4 0 6 -7 7 -17 4 -12 -5 -14 -3 -8 7 6 10 4 12 -8 7 -9 -3 -23 1
-32 9 -11 12 -15 12 -15 2 0 -10 -2 -10 -9 1 -5 8 -18 12 -30 8 -11 -3 -19 0
-18 5 3 15 -51 29 -57 15 -2 -7 -5 -5 -5 5 -1 11 -7 15 -21 11 -12 -3 -20 0
-20 6 0 7 -4 9 -10 6 -5 -3 -10 0 -10 7 0 10 -2 10 -9 -1 -5 -8 -10 -9 -12 -3
-2 6 -24 12 -47 15 -24 2 -47 10 -52 17 -6 10 -9 8 -13 -6 -4 -18 -5 -18 -6 1
-1 14 -4 16 -9 7 -7 -10 -15 -7 -37 10 -16 12 -26 18 -22 11 4 -6 0 -14 -9
-17 -8 -3 -12 -2 -9 4 5 8 -31 15 -57 11 -5 0 -8 5 -8 12 0 8 -4 7 -10 -3 -7
-11 -10 -11 -10 -2 0 7 -4 10 -10 7 -5 -3 -19 -1 -31 6 -15 8 -19 8 -15 0 4
-6 2 -11 -3 -11 -6 0 -11 6 -11 13 0 8 -4 7 -10 -3 -7 -11 -10 -11 -10 -2 0 7
-4 10 -10 7 -5 -3 -10 0 -10 7 0 8 -3 9 -8 3 -8 -11 -44 -17 -37 -6 2 4 -15 8
-38 8 -23 0 -51 4 -61 8 -14 6 -17 5 -11 -4 6 -10 3 -11 -14 -2 -11 7 -21 9
-21 5 0 -3 -6 -2 -13 5 -10 8 -17 7 -25 -1 -7 -7 -12 -8 -12 -2 0 6 -7 11 -15
11 -8 0 -15 -4 -15 -9 0 -5 -4 -7 -8 -4 -22 13 -72 16 -72 4 0 -10 -2 -10 -8
-1 -4 7 -28 11 -59 10 -28 -1 -49 1 -46 6 2 4 -1 7 -6 7 -6 0 -11 -5 -11 -12
0 -9 -3 -9 -12 0 -15 15 -31 16 -22 0 5 -7 3 -8 -5 -4 -16 10 -161 14 -155 5
2 -4 -7 -4 -21 0 -14 3 -55 4 -91 1 -36 -3 -69 -1 -74 4 -7 7 -10 6 -10 -2 0
-9 -5 -10 -19 -3 -10 6 -21 7 -25 4z"/>
</g>
</svg>
